<svg xmlns="http://www.w3.org/2000/svg" height="1024" preserveAspectRatio="none" style="display: block;" version="1.1" viewBox="0 0 2048 2048" width="1024">
<path d="M 0 0 L 2048 0 L 2048 2048 L 0 2048 L 0 0 z" fill="rgb(255,255,255)" transform="translate(0,0)"></path>
<path d="M 990.899 71.7855 C 1517 53.6752 1958.18 465.477 1976.31 991.581 C 1994.43 1517.68 1582.64 1958.87 1056.54 1977.02 C 530.414 1995.16 89.2026 1583.35 71.0761 1057.22 C 52.9497 531.096 464.773 89.8966 990.899 71.7855 z" fill="rgb(12,35,67)" transform="translate(0,0)"></path>
<path d="M 992.677 136.321 C 1483.48 119.426 1894.96 503.803 1911.49 994.622 C 1928.03 1485.44 1543.35 1896.64 1052.52 1912.81 C 562.197 1928.96 151.523 1544.77 135.007 1054.46 C 118.491 564.154 502.381 153.198 992.677 136.321 z" fill="rgb(255,255,255)" transform="translate(0,0)"></path>
<path d="M 1005.03 249.441 C 1063.71 245.851 1141.44 259.108 1198.33 273.934 C 1228.12 281.696 1266.69 297.552 1295.22 309.591 C 1316.74 358.399 1331.87 409.781 1340.24 462.463 C 1343.97 463.969 1348.87 466.021 1351.94 468.59 C 1366.65 480.927 1371.91 513.47 1373.29 531.388 C 1386.61 526.948 1399.16 520.122 1412.14 515.092 C 1437.15 505.61 1462.55 495.304 1488.44 488.429 C 1507.5 483.368 1554.81 471.101 1566.74 494.035 C 1575.94 511.732 1575.32 537.85 1569.55 556.607 C 1551.88 613.998 1508.01 667.036 1456.17 696.084 C 1476.48 722.903 1480.07 739.568 1485.72 772.425 C 1475.04 753.917 1464.25 744.468 1448.41 730.714 C 1458.2 744.155 1464.79 754.118 1472.21 769.421 C 1476.87 776.236 1483.17 796.262 1488.29 801.663 C 1513.08 827.809 1565.77 862.961 1597.8 875.998 C 1575.18 882.814 1554.44 886.6 1531.22 890.531 C 1543.75 904.2 1557.18 917.674 1567.88 932.799 C 1599.81 977.924 1626.68 1026.05 1647.66 1077.04 C 1625.39 1067.75 1596.67 1062.05 1572.97 1056.98 C 1607.28 1183.75 1587.34 1283.44 1530.08 1400.62 C 1520.2 1420.83 1508.21 1439.81 1498.38 1459.59 C 1492.05 1431.6 1483.18 1404.24 1471.88 1377.86 C 1468.83 1392.87 1462.01 1412.59 1456.99 1427.14 C 1423.54 1524.02 1359.18 1597.03 1277.26 1656.46 C 1247.03 1678.39 1212.78 1696.66 1184.31 1717.31 C 1195.69 1699.29 1211.62 1659.71 1216.18 1638.97 C 1201.48 1651.83 1184.42 1668.91 1169.12 1680.72 C 1104.81 1730.33 1058.88 1757.22 1024.81 1835.41 C 1022.11 1831.25 1019.84 1826.96 1017.46 1822.62 C 1000.87 1791.06 980.181 1760.38 952.704 1737.29 C 914.809 1705.46 875.308 1675.57 836.741 1644.46 C 844.115 1671.6 855.782 1698.28 867.731 1723.65 C 845.654 1706.94 820.195 1690.91 796.865 1675.6 C 687.254 1603.7 605.103 1509.72 581.529 1376.63 C 567.284 1402.96 554.109 1434.79 552.564 1465.04 C 479.735 1352.25 435.641 1191.98 476.601 1059.15 C 478.043 1054.47 479.867 1049.62 481.518 1044.99 C 457.661 1051.25 413.641 1068.65 393.861 1082.49 C 424.873 999.381 463.876 950.504 524.089 887.991 C 502.508 886.33 470.999 882.339 450.8 873.795 C 466.87 866.808 475.624 864.724 492.463 855.094 C 529.312 834.022 589.963 776.098 600.749 735.22 C 583.655 754.992 569.069 772.713 548.386 789.033 C 552.592 756.993 566.79 722.432 582.216 694.274 C 568.041 685.358 552.831 673.179 541.558 660.806 C 509.736 625.878 446.238 521.378 493.929 479.765 C 538.914 487.155 583.248 494.315 627.687 504.76 C 644.459 508.703 661.823 512.276 678.23 517.48 C 680.168 507.363 685.702 469.989 699.442 470.517 C 702.65 468.237 705.724 445.602 706.567 440.225 C 714.472 389.834 730.611 346.987 751.024 300.558 C 828.81 268.744 921.567 253.25 1005.03 249.441 z" fill="rgb(6,26,61)" transform="translate(0,0)"></path>
<path d="M 631.082 767.969 C 644.962 779.575 662.257 786.887 678.645 794.237 C 684.288 796.769 692.672 799.888 697.601 803.076 C 684.117 831.871 676.594 850.281 655.82 875.602 C 641.137 893.5 606.585 925.257 596.433 943.551 C 621.386 923.274 662.614 897.319 690.826 879.856 L 690.024 881.03 C 681.965 892.712 668.157 907.418 658.867 918.45 C 621.308 963.05 596.001 993.095 580.5 1051.12 C 599.126 1017.37 622.886 993.587 654.471 971.325 C 665.382 963.634 677.578 957.022 688.439 949.4 C 677.439 972.324 666.268 995.165 654.927 1017.92 C 633.145 1062.06 613.439 1100.14 613.499 1150.76 C 626.07 1099.4 645.244 1076.82 684.765 1044.1 C 705.311 1113.44 685.016 1134.44 664.851 1196.14 C 684.538 1172.11 706.254 1152.8 727.702 1126.12 C 697.998 1177.31 684.576 1243.3 699.903 1301.04 C 699.741 1269.36 700.349 1239.3 718.479 1211.7 C 734.065 1187.97 753.521 1167.52 777.158 1151.74 C 717.858 1219.69 748.911 1303.83 801.07 1365 C 800.605 1337.2 801.802 1325.18 806.115 1297.77 L 806.445 1298.91 C 809.303 1309.09 811.117 1320.69 813.285 1330.96 C 827.672 1399.08 866.319 1452.52 918.796 1496.87 C 938.556 1513.58 959.199 1530.34 977.158 1549.66 C 967.414 1517.54 957.08 1507.76 946.036 1481.46 C 973.781 1508.97 1004.76 1552.71 1023.35 1586.93 C 1045.3 1551.69 1071.23 1513.23 1100.12 1483.33 C 1088.98 1505.15 1078.99 1527.55 1070.18 1550.41 C 1080.85 1539.63 1091.86 1528.49 1103.97 1519.36 C 1179.11 1462.77 1237.21 1395.01 1237.28 1295.64 C 1246.37 1319.04 1252.61 1341.18 1253.15 1366.4 C 1262.84 1350.39 1274.69 1333.4 1283.05 1317.14 C 1300.6 1283.03 1308.2 1237.32 1298.99 1199.67 C 1294.93 1183.08 1288.57 1171.64 1279.48 1157.48 C 1311.47 1183.99 1338.51 1228.5 1342.62 1270.36 C 1342.99 1274.32 1343.25 1278.3 1343.41 1282.27 C 1349.98 1247.04 1346.07 1210.98 1338.44 1176.14 C 1334.12 1156.45 1325.39 1137.33 1320.13 1117.79 C 1340.07 1150.02 1358.44 1167.46 1379.21 1196.81 C 1357.96 1141.02 1345.96 1094.7 1347.15 1034.09 C 1391.44 1070.3 1416.34 1092.41 1438.19 1148.2 C 1432.09 1116.17 1430.18 1103.83 1417.38 1073.38 C 1399.73 1031.38 1369.52 998.105 1362.38 953.274 L 1364.07 954.294 C 1389.95 970.055 1428.55 999.802 1450.48 1021.1 C 1461.28 1031.58 1468.31 1044.76 1477.42 1055.31 C 1477.41 1052.04 1470.77 1040.59 1468.69 1036.93 C 1456.09 1014.96 1442.29 993.693 1427.37 973.23 C 1415.1 956.555 1370.87 900.547 1365.04 884.513 C 1394.45 899.384 1438.42 926.812 1464.53 947.761 C 1471.03 952.98 1481.92 970.804 1487.08 978.413 C 1507.81 1008.94 1521.42 1031.86 1533.27 1067.21 C 1553.27 1126.86 1554.34 1162.53 1549.29 1223.52 C 1539.89 1177.59 1528.38 1145.26 1500.94 1106.25 C 1507.92 1123.22 1515.71 1143.41 1518.97 1161.3 C 1529.28 1217.89 1531.56 1302.79 1509.13 1355.98 C 1489.25 1307.16 1471.99 1271.06 1429.5 1236.95 C 1437.33 1255.9 1441.6 1273.47 1441.77 1294.04 C 1442.78 1415.86 1372.23 1520.72 1278.51 1590.91 C 1309.71 1549.46 1325.93 1501.56 1335.51 1451.14 L 1331.75 1450.69 C 1317.25 1497.04 1274.3 1558.68 1239.97 1593.51 C 1252.14 1560.34 1252.4 1523.55 1250.49 1488.77 C 1237.03 1539.84 1213.14 1571.58 1177.2 1608.98 C 1154.03 1633.08 1140.54 1645.26 1113.11 1665.34 C 1119.48 1654.87 1125.15 1643.17 1131.25 1632.4 C 1139.21 1618.32 1147.42 1604.43 1155.25 1590.27 C 1108.52 1640.36 1058.6 1683.52 1024.3 1743.3 C 996.194 1685.41 936.995 1639.73 893.797 1592.08 C 896.414 1597.92 900.315 1604.32 903.716 1609.87 C 914.635 1627.68 924.292 1646.51 935.498 1664.09 C 895.381 1637.61 836.265 1584.58 815.716 1540.61 C 807.202 1522.39 805.226 1511.54 800.517 1492.82 C 792.206 1527.7 796.762 1563.73 807.681 1597.37 C 780.584 1565.25 749.237 1526.43 729.223 1489.75 C 718.616 1470.31 711.161 1448.74 701.799 1428.89 C 705.331 1441.95 707.867 1455.73 711.792 1468.64 C 725.774 1514.62 746.581 1560.45 777.549 1597.41 C 768.413 1590.76 760.101 1582.81 751.336 1575.72 C 694.634 1529.86 645.398 1464.1 622.095 1394.73 C 604.195 1341.45 603.2 1273.96 629.544 1222.73 C 588.262 1266.48 557.91 1303.22 542.176 1362.33 C 518.791 1287.23 520.399 1199.41 540.039 1123.79 C 543.178 1111.7 547.229 1099.93 549.813 1087.67 C 537.347 1113.93 525.837 1140.62 515.307 1167.71 C 510.553 1180.26 506.771 1193.04 502.021 1205.55 C 493.668 1128.94 512.05 1059.11 549.257 992.494 C 559.253 974.597 576.737 949.241 584.117 931.761 L 584.636 930.496 C 568.015 953.003 535.008 988.412 511.443 1004.17 C 502.779 1009.96 474.002 1021.2 463.5 1024.56 C 481.581 975.429 535.381 921.795 573.329 886.869 C 596.803 865.266 623.577 846.455 636.525 815.913 C 604.386 850.215 568.04 862.404 521.947 864.135 C 529.287 860.531 536.665 856.987 544.004 853.379 C 583.457 833.984 607.764 803.773 631.082 767.969 z" fill="rgb(255,255,255)" transform="translate(0,0)"></path>
<path d="M 1338.33 1431.33 C 1337.56 1437.96 1336.62 1444.56 1335.51 1451.14 L 1331.75 1450.69 C 1333.79 1444.55 1336.02 1437.27 1338.33 1431.33 z" fill="rgb(12,35,67)" transform="translate(0,0)"></path>
<path d="M 1046.78 268.454 C 1110.28 270.061 1181.89 287.918 1241.36 309.433 C 1254.46 314.171 1270.8 320.414 1282.82 327.153 C 1304.74 359.162 1324.81 433.045 1328.25 471.824 C 1322.61 479.019 1316.82 486.103 1310.9 493.073 C 1297.05 480.753 1287.12 479.162 1269.64 476.747 C 1287.79 484.618 1306.17 495.6 1316.67 513.317 C 1316.04 521.604 1318.92 526.363 1320.12 534.204 C 1324.34 561.586 1329.78 587.243 1318.08 613.255 C 1307.12 563.245 1290.47 472.556 1218.12 503.249 C 1231.86 507.424 1237.63 510.89 1245.78 524.122 C 1261.41 549.506 1257.41 612.804 1249.57 641.266 C 1249.61 607.631 1249.23 578.592 1236 546.581 C 1227.59 526.225 1215.98 516.078 1195.88 507.877 C 1212.25 524.467 1216.49 528.774 1222.44 551.493 C 1167.91 570.231 1122.81 580.795 1065.5 588.916 C 1045.35 591.362 1025.94 593.869 1005.65 594.541 C 982.719 595.095 959.775 594.614 936.888 593.099 C 856.95 588.601 771.988 574.064 709.729 517.84 C 705.455 513.981 695.331 503.671 695.154 497.957 L 696.557 497.114 C 698.967 498.059 699.124 498.711 701.015 500.508 C 776.669 572.385 902.088 584.833 1001.48 582.544 C 1000.12 559.56 991.051 525.904 986.194 502.89 C 981.632 481.277 976.142 459.027 970.931 437.664 C 967.663 424.268 956.908 390.739 956.337 379.135 C 906.508 355.493 855.088 323.496 800.127 312.87 C 818.683 307.383 840.193 303.523 859.154 298.767 C 922.327 282.922 981.635 272.681 1046.78 268.454 z" fill="rgb(255,255,255)" transform="translate(0,0)"></path>
<path d="M 1207.73 320.54 L 1206.08 322.917 C 1165.52 332.037 1096.88 356.93 1061.76 378.834 C 1029.84 398.744 1005.47 430.223 997.463 467.584 C 989.783 438.335 980.97 410.788 973.413 380.676 C 1036.21 358.985 1100.53 339.154 1165.98 327.202 C 1179.83 324.673 1193.87 323.103 1207.73 320.54 z" fill="rgb(6,26,61)" transform="translate(0,0)"></path>
<path d="M 1207.73 320.54 C 1210.66 320.028 1214.84 318.897 1217.41 319.835 C 1213.94 321.964 1210.18 322.208 1206.08 322.917 L 1207.73 320.54 z" fill="rgb(137,137,128)" transform="translate(0,0)"></path>
<path d="M 1541.95 489.413 C 1585.78 488.839 1555.78 559.855 1542.61 578.626 C 1544.23 572.128 1548.87 559.713 1544.26 553.65 C 1541.7 550.283 1536.8 550.118 1532.98 550.447 C 1502.29 553.087 1411.41 594.385 1382.48 608.79 C 1352.23 623.855 1322.93 640.819 1292.94 656.391 C 1117.03 747.723 968.909 773.191 774.464 729.142 C 759.972 725.86 745.716 721.074 731.536 716.639 C 648.466 690.661 556.584 645.476 508.672 569.387 C 507.096 566.619 505.588 563.814 504.149 560.973 C 492.525 537.636 488.656 520.265 496.91 495.361 C 520.06 500.261 543.605 504.192 566.872 508.998 C 603.142 516.726 639.34 524.788 675.46 533.184 C 674.077 551.603 670.062 569.843 670.038 588.719 C 675.077 596.827 683.525 604.106 690.807 610.207 C 749.544 659.412 813.155 682.372 887.422 696.838 C 1052.78 729.048 1230.46 701.457 1364.64 594.942 C 1414.59 555.295 1475.58 495.288 1541.95 489.413 z" fill="rgb(255,255,255)" transform="translate(0,0)"></path>
<path d="M 1135.5 883.956 C 1141.6 884.019 1150.99 884.08 1157.13 885.364 C 1182.28 890.622 1199.52 902.514 1221.52 883.263 C 1239.74 867.321 1249.75 856.09 1263.56 837.536 C 1272.36 825.706 1308.03 827.262 1322.6 826.657 C 1332.2 852.141 1335.94 883.544 1335.7 910.517 C 1334.75 1014.89 1276.72 1020.55 1243.67 1101 C 1244.24 1095.17 1245.66 1079.59 1247.54 1074.23 C 1257.73 1045.22 1276.15 1018.69 1289.04 990.017 C 1303 958.967 1307.44 940.923 1315.18 908.642 C 1298.35 935.616 1285.78 952.064 1262.9 974.631 C 1247.82 989.495 1232.55 1010.5 1220.84 1028.11 C 1205.74 1010.98 1190.64 995.166 1173.17 980.353 C 1173.32 981.808 1182.08 991.707 1183.72 993.725 C 1205.88 1021.01 1223.17 1055.8 1220.7 1091.78 C 1220.23 1095.54 1219.84 1093.88 1221.59 1096.98 C 1223.43 1101.88 1222.98 1107.6 1223.02 1112.95 C 1209.45 1115.92 1195.79 1118.41 1182.05 1120.42 C 1185.39 1122.93 1189.69 1121.72 1194.11 1122.07 C 1203.29 1121.74 1212.66 1120.9 1221.69 1120.7 L 1221.58 1132.99 C 1193.58 1139.81 1165.23 1142.91 1136.49 1144.13 L 1128.87 1145.78 C 1161.79 1150.34 1190.66 1150.76 1223.54 1149.74 C 1216.41 1162.39 1211.62 1166.27 1197.5 1171.3 C 1182.37 1176.69 1166.76 1179.22 1150.76 1180.31 C 1146.01 1182.73 1131.38 1179.78 1128.38 1182.35 L 1128.34 1182.71 C 1156.86 1187.33 1182.12 1186.87 1210.64 1184.11 C 1204.05 1197.54 1191.06 1212.88 1179.37 1222.33 C 1170.57 1229.44 1158.95 1229.73 1148.14 1227.84 C 1111.64 1221.47 1050.04 1203.79 1027.35 1174 C 1027.23 1172.92 1027.12 1171.84 1027.01 1170.76 C 1025.81 1158.3 1024.12 1139.25 1027.6 1127.29 C 1028.07 1125.66 1046.04 1112.22 1049.45 1107.96 C 1066.79 1086.32 1070.68 1065.48 1097.42 1053.46 C 1094.64 1059.43 1089.3 1068.2 1094.11 1074.15 C 1107.8 1080.59 1148.25 1045.67 1149.81 1030.97 C 1153.01 1000.83 1138.71 966.877 1134.87 936.803 C 1132.65 919.377 1127.75 901.953 1127.11 884.502 L 1127.07 883 C 1133.35 891.59 1139.28 906.25 1144.11 916.391 C 1141.72 903.25 1140.23 896.421 1135.5 883.956 z" fill="rgb(255,255,255)" transform="translate(0,0)"></path>
<path d="M 1220.7 1091.78 C 1220.23 1095.54 1219.84 1093.88 1221.59 1096.98 C 1201.61 1097.47 1165.64 1102.65 1143.7 1104.53 C 1146.09 1103.58 1161.92 1101.26 1165.61 1100.66 L 1220.7 1091.78 z" fill="rgb(12,35,67)" transform="translate(0,0)"></path>
<path d="M 1103.92 1177.58 C 1121.38 1179.87 1133.28 1180.19 1150.76 1180.31 C 1146.01 1182.73 1131.38 1179.78 1128.38 1182.35 L 1128.34 1182.71 C 1121.2 1182.46 1110.9 1179.45 1103.92 1177.58 z" fill="rgb(122,124,134)" transform="translate(0,0)"></path>
<path d="M 1172.11 1121.3 L 1182.05 1120.42 C 1185.39 1122.93 1189.69 1121.72 1194.11 1122.07 C 1187.54 1123.31 1179.03 1123.15 1172.19 1123.24 C 1171.8 1122.44 1172.03 1123.04 1172.11 1121.3 z" fill="rgb(12,35,67)" transform="translate(0,0)"></path>
<path d="M 1153.48 1123.3 C 1159.7 1122.67 1165.91 1122.01 1172.11 1121.3 C 1172.03 1123.04 1171.8 1122.44 1172.19 1123.24 C 1167.5 1124.12 1166.04 1124.13 1161.21 1124.18 L 1153.48 1123.3 z" fill="rgb(89,92,100)" transform="translate(0,0)"></path>
<path d="M 1124.95 1146.3 C 1119.61 1145.68 1114.98 1145.44 1109.94 1143.58 C 1113.7 1142.85 1117.33 1143.63 1121.16 1144.15 L 1124.95 1146.3 z" fill="rgb(199,192,180)" transform="translate(0,0)"></path>
<path d="M 1121.16 1144.15 C 1125.95 1144.11 1131.79 1143.9 1136.49 1144.13 L 1128.87 1145.78 L 1124.95 1146.3 L 1121.16 1144.15 z" fill="rgb(89,92,100)" transform="translate(0,0)"></path>
<path d="M 1143.25 1124.88 C 1147.45 1123.85 1149.23 1123.19 1153.48 1123.3 L 1161.21 1124.18 C 1155.25 1125.48 1149.36 1125.02 1143.25 1124.88 z" fill="rgb(199,192,180)" transform="translate(0,0)"></path>
<path d="M 738.76 817.638 C 747.189 818.234 765.71 819.967 772.811 824.237 C 773.024 824.613 773.736 826 774.015 826.214 C 790.303 843.587 812.505 877.508 833.219 890.393 C 842.106 895.922 867.939 888.973 878.169 887.832 C 886.703 886.684 905.667 886.413 912.161 881.692 C 912.799 888.53 903.24 899.316 903.603 907.314 C 903.643 908.21 902.666 917.494 902.526 919.132 C 907.847 909.149 913.509 894.912 919.927 886.647 C 920.335 908.214 916.409 927.472 912.996 948.749 C 909.428 970.997 898.049 1008.8 900.799 1030.05 C 902.996 1047.01 936.247 1073.37 952.392 1076.56 C 953.876 1076.95 956.119 1075.95 957.455 1075.33 C 962.818 1069.46 958.695 1061.36 955.702 1055.17 C 985.336 1070.66 982.366 1082.63 1001.65 1107.96 C 1006.46 1114.28 1016.94 1121.76 1023.39 1127.49 C 1023.46 1140.58 1024.34 1159.27 1022.15 1172.03 C 1021.16 1175.25 1017.61 1180.09 1015.17 1182.15 C 983.926 1208.45 933.455 1225.41 893.109 1227.28 C 868.486 1228.42 850.845 1205.69 841.091 1185.91 C 869.204 1190.03 909.022 1185.71 936.881 1179.09 C 928.222 1178.75 919.305 1180.04 910.674 1180.18 C 891.047 1180.49 831.634 1179.2 826.675 1154.24 C 827.223 1152.65 827.203 1151.47 828.55 1151.24 C 835.005 1150.13 846.166 1151.21 853.398 1151.15 C 874.391 1151.03 895.354 1149.56 916.159 1146.75 L 914.095 1143.97 C 879.126 1142.69 859.267 1139.01 825.061 1131.51 L 825.367 1118.04 C 845.965 1119.05 865.986 1121.25 886.276 1122.25 L 883.094 1120.06 C 874.621 1119.95 835.851 1111.1 825.604 1108.9 C 825.654 1103.85 824.36 1096.3 828.951 1093.85 L 828.656 1091.59 L 831.69 1090 C 828.716 1088.97 829.909 1089.82 827.947 1087.42 C 827.043 1081.59 828.64 1074.34 829.264 1068.34 C 831.912 1042.84 844.264 1016.96 857.599 995.354 C 862.323 987.7 868.259 980.221 873.131 972.417 C 864.92 977.133 832.655 1018.08 825.74 1026.98 C 802.727 990.687 773.481 964.513 750.747 928.826 C 745.177 920.083 740.129 908.621 735.631 899.116 C 736.232 906.485 736.91 913.861 737.668 921.18 C 742.035 963.905 764.57 1002.22 785.246 1038.97 C 798.789 1063.03 801.182 1068.94 800.639 1096.32 C 791.587 1062.11 776.468 1055.43 756.732 1029.58 C 740.333 1007.91 728.026 983.439 720.417 957.357 C 704.611 902.375 711.854 866.375 738.76 817.638 z" fill="rgb(255,255,255)" transform="translate(0,0)"></path>
<path d="M 831.69 1090 C 850.696 1091.36 872.705 1097.56 892.271 1099.23 L 892.567 1101.3 C 871.658 1099.56 850.082 1096.09 828.951 1093.85 L 828.656 1091.59 L 831.69 1090 z" fill="rgb(12,35,67)" transform="translate(0,0)"></path>
<path d="M 892.271 1099.23 L 930.757 1104.42 C 923.13 1105.42 899.923 1103.35 892.567 1101.3 L 892.271 1099.23 z" fill="rgb(122,124,134)" transform="translate(0,0)"></path>
<path d="M 883.094 1120.06 C 892.575 1120.65 902.03 1121.11 911.418 1122.62 C 906.149 1122.84 890.492 1123.75 886.276 1122.25 L 883.094 1120.06 z" fill="rgb(122,124,134)" transform="translate(0,0)"></path>
<path d="M 914.095 1143.97 L 930.095 1144.34 L 929.956 1144.34 C 925.97 1145.1 920.041 1146.41 916.159 1146.75 L 914.095 1143.97 z" fill="rgb(12,35,67)" transform="translate(0,0)"></path>
<path d="M 1017.96 1225.43 C 1040.39 1223.86 1078.24 1232.89 1101.36 1237.61 C 1123.31 1242.08 1135.82 1244.31 1158.3 1246.12 C 1169.45 1278.78 1178.82 1306.45 1168.58 1340.08 C 1164.33 1324.04 1158.61 1313.31 1150.71 1299.11 C 1157.9 1333.93 1155.99 1348.18 1135.3 1376.74 C 1136.44 1362.59 1135.71 1351.15 1131.88 1337.56 C 1123.31 1363.52 1102.58 1392.06 1080.44 1407.27 C 1084.29 1395.12 1086.34 1386.94 1088.27 1374.37 C 1075.39 1394.5 1053.99 1409.29 1034.83 1422.93 C 1031.89 1425.03 1026.9 1429.61 1024.33 1430.81 C 997.112 1413.6 977.753 1399.79 956.822 1374.98 C 960.106 1385.94 963.246 1396.94 966.241 1407.98 C 937.991 1380.07 930.275 1375.56 913.933 1339.98 C 912.027 1354.16 912.121 1363.59 912.341 1377.74 C 909.869 1374.57 907.538 1371.29 905.355 1367.91 C 888.772 1342.27 892.59 1328.62 898.614 1301.05 C 887.524 1319.56 884.102 1325.52 879.069 1346.48 C 867.244 1307.15 873.694 1284.47 891.237 1247.76 C 932.462 1240.89 978.087 1228.82 1017.96 1225.43 z" fill="rgb(255,255,255)" transform="translate(0,0)"></path>
<path d="M 988.105 815.319 C 1007.77 815.142 1040.16 813.885 1058.99 815.458 C 1060.77 852.309 1080.31 853.832 1094.96 881.011 C 1108.26 909.724 1118.12 939.98 1130.32 969.261 C 1141.76 996.695 1151.03 1007.77 1131.36 1032.76 C 1112.33 999.441 1078.05 1015.8 1050.44 1022.32 C 1040.43 1024.79 1030.1 1025.7 1019.81 1025.01 C 993.192 1023.22 973.827 1011.37 948.921 1012.6 C 934.668 1013.31 927.593 1021.64 919.167 1031.78 C 917.421 1029.89 915.718 1027.97 914.059 1026.01 C 910.45 1021.71 905.251 1013.21 906.212 1007.39 C 909.314 988.631 919.334 970.184 925.791 952.334 C 934.972 931.335 943.096 896.878 954.804 877.918 C 972.926 848.568 984.536 856.39 988.105 815.319 z" fill="rgb(255,255,255)" transform="translate(0,0)"></path>
<path d="M 968.661 775.839 C 1050.61 772.057 1143.17 753.059 1217.03 716.199 C 1249.88 731.407 1302.01 770.286 1318.07 803.25 C 1318.8 806.658 1320.21 809.527 1318.19 812.004 C 1312.73 818.677 1299.43 819.121 1292 819.671 C 1269.05 821.369 1246.34 814.108 1224.12 810.547 C 1221.08 810.465 1208.28 808.162 1202.97 807.816 C 1194.51 807.265 1176.46 808.728 1170.13 807.434 C 1148.27 818.505 1155.68 846.434 1117.23 846.509 C 1095.14 846.552 1066.28 843.591 1064.58 815.253 C 1066.97 796.141 1075.31 788.103 1082.66 771.377 C 1070.73 783.534 1063.93 799.506 1058.99 815.458 C 1040.16 813.885 1007.77 815.142 988.105 815.319 C 984.641 797.567 979.521 789.751 968.661 775.839 z" fill="rgb(137,137,128)" transform="translate(0,0)"></path>
<path d="M 1064.58 815.253 C 1078.43 816.296 1101.37 818.396 1114.38 816.227 C 1129.53 813.702 1147.06 808.543 1162.51 805.82 C 1167.37 804.963 1167.29 805.252 1170.13 807.434 C 1148.27 818.505 1155.68 846.434 1117.23 846.509 C 1095.14 846.552 1066.28 843.591 1064.58 815.253 z" fill="rgb(255,255,255)" transform="translate(0,0)"></path>
<path d="M 1318.07 803.25 C 1318.8 806.658 1320.21 809.527 1318.19 812.004 C 1312.73 818.677 1299.43 819.121 1292 819.671 C 1269.05 821.369 1246.34 814.108 1224.12 810.547 C 1227.91 808.237 1243.84 808.915 1249.2 808.812 C 1272.26 808.502 1295.26 806.644 1318.07 803.25 z" fill="rgb(255,255,255)" transform="translate(0,0)"></path>
<path d="M 955.732 617.792 C 969.601 618.461 987.585 616.826 1001.58 615.975 C 1071.74 611.707 1160.05 589.633 1222.55 557.406 C 1227.68 590.399 1229.99 605.881 1230.74 639.927 C 1198.67 659.526 1123.79 683.345 1086.77 683.851 C 998.308 685.06 875.137 669.998 794.474 633.075 C 931.972 660.142 1049.33 662.863 1182.23 613.29 L 1181.74 611.536 C 1119.32 626.314 1066.63 630.686 1002.54 625.594 C 986.109 624.289 970.639 621.149 955.115 619.645 L 954.677 618.795 L 955.732 617.792 z" fill="rgb(77,139,185)" transform="translate(0,0)"></path>
<path d="M 1181.74 611.536 C 1188.04 609.333 1191.18 608.745 1197.69 607.486 C 1192.68 609.408 1187.29 611.599 1182.23 613.29 L 1181.74 611.536 z" fill="rgb(28,68,111)" transform="translate(0,0)"></path>
<path d="M 1378.25 777.107 C 1379.44 775.659 1405.7 763.32 1410.34 760.981 C 1435.88 805.045 1471.01 847.778 1520.62 864.181 C 1483.59 863.681 1448.15 853.118 1415.48 835.963 C 1441.03 861.762 1467.85 883.959 1494.62 908.052 C 1528.43 938.487 1565.32 985.531 1585.67 1026.65 C 1552.48 1010.03 1523.19 992.558 1495.05 967.563 C 1478.77 953.104 1462.14 938.985 1445.52 924.926 C 1419.49 899.399 1388.64 872.767 1364.56 846.029 C 1362.28 818.522 1357.14 812.316 1341.78 789.454 C 1351.15 785.935 1359.94 783.857 1369.31 779.464 C 1378.32 785.987 1388.66 796.637 1397.52 802.206 C 1396.55 798.588 1381.26 780.624 1378.25 777.107 z" fill="rgb(255,255,255)" transform="translate(0,0)"></path>
<path d="M 772.582 751.25 C 846.038 767.396 887.471 773.782 962.612 775.872 C 974.797 788.805 979.654 798.406 983.238 815.731 C 976.446 849.186 946.988 849.149 919.41 844.499 C 896.966 840.715 899.482 829.49 888.028 817.372 C 882.958 813.954 875.929 809.379 869.953 808.249 C 856.642 805.731 831.253 813.038 817.797 814.675 C 811.833 815.401 778.692 824.03 774.015 826.214 C 773.736 826 773.024 824.613 772.811 824.237 C 765.71 819.967 747.189 818.234 738.76 817.638 L 745.287 804.025 C 741.516 806.725 737.714 809.664 733.993 812.457 C 729.711 810.047 728.189 808.766 724.379 805.602 C 737.263 788.249 755.384 764.245 772.582 751.25 z" fill="rgb(137,137,128)" transform="translate(0,0)"></path>
<path d="M 888.028 817.372 C 922.563 818.865 948.888 817.942 983.238 815.731 C 976.446 849.186 946.988 849.149 919.41 844.499 C 896.966 840.715 899.482 829.49 888.028 817.372 z" fill="rgb(255,255,255)" transform="translate(0,0)"></path>
<path d="M 668.677 718.37 C 696.862 727.741 731.572 740.132 759.881 746.805 C 742.417 758.862 720.775 772.785 706.065 788.328 C 703.166 791.391 699.621 798.968 697.601 803.076 C 692.672 799.888 684.288 796.769 678.645 794.237 C 662.257 786.887 644.962 779.575 631.082 767.969 C 643.763 750.372 655.328 735.331 668.677 718.37 z" fill="rgb(137,137,128)" transform="translate(0,0)"></path>
<path d="M 1269.64 704.493 C 1299.13 695.639 1345.16 694.838 1376.12 695.011 C 1388.22 713.732 1401.17 740.671 1410.34 760.981 C 1405.7 763.32 1379.44 775.659 1378.25 777.107 C 1344.92 735.545 1322.5 718.716 1269.64 704.493 z" fill="rgb(137,137,128)" transform="translate(0,0)"></path>
<path d="M 1341.98 481.732 C 1353.45 489.388 1362.14 562.521 1363.73 578.835 C 1357.2 584.289 1350.11 590.258 1342.87 594.645 C 1337.89 572.458 1328.97 526.113 1319.57 507.268 C 1326.92 498.68 1334.22 489.944 1341.98 481.732 z" fill="rgb(255,255,255)" transform="translate(0,0)"></path>
<path d="M 1219.82 829.507 L 1241.63 830.243 C 1231.01 845.328 1217.16 864.505 1200.46 873.524 C 1189.6 879.389 1180.15 876.846 1169.32 873.215 C 1158.49 868.115 1152.51 862.399 1143.52 854.767 C 1175.79 848.976 1197.7 863.232 1219.82 829.507 z" fill="rgb(255,255,255)" transform="translate(0,0)"></path>
<path d="M 805.591 832.132 C 812.553 831.947 819.726 831.949 826.71 831.863 C 845.4 855.908 865.459 863.979 893.961 847.549 L 906.693 854.621 L 898.659 862.252 C 883.44 877.49 856.851 883.671 839.309 868.553 C 826.78 857.754 816.272 844.746 805.591 832.132 z" fill="rgb(255,255,255)" transform="translate(0,0)"></path>
<path d="M 1288.39 736.94 C 1321.92 747.207 1341.79 756.293 1369.31 779.464 C 1359.94 783.857 1351.15 785.935 1341.78 789.454 C 1331.98 774.232 1303.64 746.9 1288.39 736.94 z" fill="rgb(137,137,128)" transform="translate(0,0)"></path>
<path d="M 724.379 805.602 C 728.189 808.766 729.711 810.047 733.993 812.457 C 719.254 824.955 706.01 839.519 691.446 851.512 C 702.864 836.505 712.706 820.312 724.379 805.602 z" fill="rgb(255,255,255)" transform="translate(0,0)"></path>
<path d="M 861.917 828 C 867.767 827.949 876.83 829.688 878.041 836.39 C 875.854 838.978 876.268 838.214 872.435 839.407 C 866.927 839.546 858.664 839.936 856.696 833.578 C 858.358 829.731 858.008 830.839 861.917 828 z" fill="rgb(199,192,180)" transform="translate(0,0)"></path>
<path d="M 1187.15 828.433 C 1190.06 828.191 1189.87 828.115 1192.59 829.121 L 1192.89 831.034 C 1188.59 835.685 1186.36 835.339 1180.31 835.404 C 1177.7 834.193 1177.47 833.9 1175.18 832.088 L 1175.17 830.453 C 1178.91 828.519 1182.85 828.714 1187.15 828.433 z" fill="rgb(255,255,255)" transform="translate(0,0)"></path>
<path d="M 937.995 617.798 C 943.362 616.989 950.445 616.356 955.732 617.792 L 954.677 618.795 L 955.115 619.645 C 950.774 619.56 942.63 618.361 937.995 617.798 z" fill="rgb(28,68,111)" transform="translate(0,0)"></path>
<path d="M 1000.39 159.449 C 1007.27 159.235 1014.15 159.128 1021.04 159.128 C 1248.76 158.043 1467.69 246.943 1630.19 406.48 C 1799.9 574.272 1887.54 788.776 1888.64 1026.95 C 1890.45 1251.44 1802.87 1467.42 1645.21 1627.23 C 1626.48 1646.1 1603.54 1668.72 1583.41 1685.61 C 1427.63 1815.94 1231.07 1887.49 1027.96 1887.81 C 1045.44 1830.64 1100.16 1759.77 1153.42 1732.73 C 1149.92 1742.3 1144.44 1752.84 1140.66 1762.59 C 1136.05 1774.51 1131.89 1786.46 1127.31 1798.4 C 1141.87 1785.24 1152.56 1776.02 1168.61 1764.71 C 1200.54 1742.21 1235.54 1725.67 1267.9 1704.38 C 1347.06 1652.29 1434.36 1565.55 1471.23 1477.36 C 1475.18 1497.75 1478.5 1522.12 1479.25 1542.83 C 1493.07 1527.2 1512.42 1498.92 1523.2 1480.82 C 1590.94 1367.16 1644.67 1231.73 1615.37 1099.15 C 1652.85 1110.92 1664.2 1120.29 1695.77 1138.37 C 1679.33 1051.19 1642.26 985.002 1593.17 911.556 C 1629.09 899.907 1647.29 892.054 1679.78 872.713 C 1634.09 859.313 1600 847.195 1560.59 818.846 C 1548.09 809.847 1535.18 797.726 1522.93 789.728 L 1521.63 788.892 C 1519.71 759.458 1511.96 732.387 1504.18 704.202 C 1562.62 661.479 1627.47 559.408 1599.14 485.103 C 1582.22 440.717 1531.98 444.991 1494.17 453.971 C 1461.1 461.827 1428.84 473.187 1397.48 486.246 C 1389.25 461.984 1377.67 446.648 1366.17 424.844 C 1363.32 419.448 1359.85 395.489 1357.39 386.763 C 1347.82 352.399 1335.54 318.846 1320.67 286.419 C 1292.2 272.544 1273.26 266.282 1243.43 256.073 C 1173.29 232.071 1108.6 220.61 1034.81 218.197 C 952.678 216.97 885.748 227.403 807.707 251.78 C 779.551 260.574 753.308 267.828 725.483 279.237 C 716.758 296.612 708.581 325.25 702.184 343.852 C 686.807 388.569 674.721 433.224 662.668 478.879 C 648.757 477.078 632.986 472.869 618.995 470.103 L 538.632 454.983 C 525.159 452.406 505.946 447.9 492.979 447.221 C 463.056 445.655 446.917 494.429 448.03 518.012 C 450.28 565.728 472.527 618.013 500.452 656.195 C 511.841 671.766 530.239 688.609 543.773 702.158 C 535.63 722.162 525.947 748.645 522.241 769.796 C 517.158 798.809 519.432 800.633 494.326 817.889 C 454.204 845.466 411.415 859.823 364.756 871.051 C 385.922 883.65 437.752 900.473 461.765 908.409 C 406.173 983.131 364.358 1054.3 352.439 1147.97 C 372.836 1125.71 402.899 1104.25 431.358 1093.85 C 430.571 1099.61 429.851 1105.38 429.197 1111.16 C 411.639 1272.63 473.264 1424.87 573.066 1549.12 C 572.919 1521.63 570.858 1508.23 572.559 1479.04 C 587.998 1505.61 606.214 1536.95 625.136 1561.36 C 662.105 1608.69 706.393 1649.84 754.314 1685.81 C 806.764 1725.19 871.878 1755.62 919.355 1800.66 C 913.068 1776.92 902.384 1754.89 895.655 1731.88 C 951.907 1768.29 998.173 1823.04 1018 1887.62 C 799.228 1887.65 588.637 1804.48 428.94 1654.95 C 263.079 1499.21 165.435 1284.26 157.253 1056.89 C 148.323 824.481 233.503 598.298 393.518 429.517 C 516.36 299.934 676.023 211.188 850.928 175.272 C 903.819 164.713 947.033 161.302 1000.39 159.449 z" fill="rgb(12,35,67)" transform="translate(0,0)"></path>
<metadata><recraft-signature>{"signed_by": "recraft", "signature_b64": "Z0BZo3uNCmPX0ad6sTDJImUwsmnU8WMgM66yIeYDq1Vb5b19btYAkOn38wKuQIJnIYcNQonLpcdZbJYqs1MyDg==", "signing_algo": "Ed25519", "generation_timestamp": 1767558695, "identifier": "1ba9adbb-e743-4c5d-b085-33b29cc709b9"}</recraft-signature></metadata></svg>